# xmcd
#
# Track frame offsets:
#	150
#	11135
#	18188
#	32633
#	41993
#	53433
#	65198
#	73610
#	82580
#	90270
#	106013
#	116343
#	130230
#	138313
#	153770
#	164798
#	178848
#	189475
#	199480
#	205970
#	218903
#	230620
#	245743
#
# Disc length: 3426 seconds
# Revision: 0
# Processed by: cddbd v1.5.2PL0 Copyright (c) Steve Scherf et al.
# Submitted via: dBpowerAMP V12.0
#
DISCID=410d6017
DTITLE=Duane Eddy - Twang's The Thang-Songs Of Our Heritage
DYEAR=1995
DGENRE=Country
TTITLE0=Cripple Creek
TTITLE1=Riddle Song
TTITLE2=John Henry
TTITLE3=Streets Of Laredo
TTITLE4=The Prisoner's Song
TTITLE5=In The Pines
TTITLE6=Ole Joe Clark
TTITLE7=Wayfaring Stranger
TTITLE8=Top Of Old Smokey
TTITLE9=Mule Train
TTITLE10=Scarlet Ribbons
TTITLE11=My Blue Heaven
TTITLE12=Tiger Love And Turnip Greens
TTITLE13=The Last Minute Of Innocence
TTITLE14=Route Number 1
TTITLE15=You Are My Sunshine
TTITLE16=St. Louis Blues
TTITLE17=Night Train To Memphis
TTITLE18=The Battle
TTITLE19=Trambone
TTITLE20=Blueberry Hill
TTITLE21=Rebel Walk
TTITLE22=Easy
EXTD=
EXTT0=
EXTT1=
EXTT2=
EXTT3=
EXTT4=
EXTT5=
EXTT6=
EXTT7=
EXTT8=
EXTT9=
EXTT10=
EXTT11=
EXTT12=
EXTT13=
EXTT14=
EXTT15=
EXTT16=
EXTT17=
EXTT18=
EXTT19=
EXTT20=
EXTT21=
EXTT22=
PLAYORDER=
